<?xml version="1.0" encoding="utf-8"?>
<!-- Generator: Adobe Illustrator 24.3.0, SVG Export Plug-In . SVG Version: 6.00 Build 0)  -->
<svg version="1.1" id="Layer_1" xmlns="http://www.w3.org/2000/svg" xmlns:xlink="http://www.w3.org/1999/xlink" x="0px" y="0px"
	 viewBox="0 0 1080 1080" style="enable-background:new 0 0 1080 1080;" xml:space="preserve">
<style type="text/css">
	.st0{fill:#FFFFFF;}
	.st1{display:none;}
	.st2{display:inline;fill:url(#SVGID_1_);}
	.st3{display:inline;fill:url(#SVGID_2_);}
	.st4{display:inline;fill:url(#SVGID_3_);}
	.st5{display:inline;fill:url(#SVGID_4_);}
	.st6{display:inline;fill:url(#SVGID_5_);}
	.st7{fill:url(#SVGID_6_);}
	.st8{fill:url(#SVGID_7_);}
	.st9{fill:url(#SVGID_8_);}
	.st10{fill:url(#SVGID_9_);}
	.st11{fill:url(#SVGID_10_);}
	.st12{fill:url(#SVGID_11_);}
	.st13{fill:url(#SVGID_12_);}
	.st14{fill:url(#SVGID_13_);}
	.st15{fill:url(#SVGID_14_);}
	.st16{fill:url(#SVGID_15_);}
	.st17{fill:url(#SVGID_16_);}
	.st18{fill:url(#SVGID_17_);}
	.st19{fill:url(#SVGID_18_);}
	.st20{fill:url(#SVGID_19_);}
	.st21{fill:url(#SVGID_20_);}
	.st22{fill:url(#SVGID_21_);}
	.st23{fill:url(#SVGID_22_);}
	.st24{fill:url(#SVGID_23_);}
	.st25{fill:url(#SVGID_24_);}
	.st26{fill:url(#SVGID_25_);}
	.st27{fill:url(#SVGID_26_);}
	.st28{fill:url(#SVGID_27_);}
	.st29{fill:url(#SVGID_28_);}
</style>
<g>
	<circle class="st0" cx="540" cy="540" r="521"/>
	<g class="st1">
		<linearGradient id="SVGID_1_" gradientUnits="userSpaceOnUse" x1="290.6471" y1="408.9894" x2="786.5079" y2="408.9894">
			<stop  offset="0" style="stop-color:#7ED957"/>
			<stop  offset="1" style="stop-color:#B6B6B6"/>
		</linearGradient>
		<path class="st2" d="M678.8,408.6c0-30.3-0.2-56.6,0.1-82.8c0.2-19.2,9.1-30.1,23.6-30c14.3,0.1,23,11.1,23.1,30.5
			c0.2,31.9,0.9,63.9-0.3,95.7c-0.6,15.4,3.1,26.1,17,33.9c10.8,6.1,20.5,14.4,30.4,22c14.4,11.1,18,24.3,8.9,35.1
			c-11.2,13.2-23.6,11-36.5,1.7c-61.7-45-123.9-89.2-184.8-135.3c-16.3-12.3-26.4-12.8-42.8-0.3c-59.8,45.3-121.1,88.8-181.8,133
			c-2.5,1.8-5,3.8-7.6,5.4c-12.6,7.5-24.4,6.7-32.9-5.7c-8.1-11.8-4.8-23.1,6.1-31.3c23-17.3,46.4-34,69.7-50.9
			c51.6-37.6,103.4-74.8,154.6-112.9c9.7-7.2,16.1-7.6,25.9-0.3c36.5,27.5,73.7,54,110.6,80.9C666.5,400.3,671,403.3,678.8,408.6z"
			/>
		<linearGradient id="SVGID_2_" gradientUnits="userSpaceOnUse" x1="576.495" y1="628.1078" x2="809.962" y2="628.1078">
			<stop  offset="0" style="stop-color:#7ED957"/>
			<stop  offset="1" style="stop-color:#B6B6B6"/>
		</linearGradient>
		<path class="st3" d="M623,720.8c-6.6-6.2-13.9-11.3-18.4-18.2c-2-3,0.2-10.8,3-14.6c16.4-22.7,10.3-38.2-17.8-41.7
			c-13.8-1.7-13-10.4-13.3-20.1c-0.3-10.5,2.8-17.4,14.7-16.4c12.3,1.1,19-3.7,23.9-15.6c4.5-11,1.8-17.8-5.9-24.6
			c-9.2-8.1-8.1-15.3,0.5-23.5c8.1-7.7,15.2-13.8,24.8-2.7c7.3,8.4,14.5,11.2,26.1,6.2c11.4-4.9,15.1-11.7,14.2-22.9
			c-1-13.1,6.8-15.2,17.8-15.3c11.8-0.1,20.2,2.1,18.6,16.2c-1.3,12,4.8,17.4,15.3,22.2c10.9,5,17.8,1.8,24.5-5.9
			c9-10.2,16.3-7.1,24.9,1.5c9.2,9.1,10.2,16.6,0.3,24.9c-8.4,7.1-9.3,14.6-4.7,24.8c4.4,9.7,9.4,15.9,20.8,14.6
			c13-1.4,17.3,4.5,17.5,17.5c0.2,13.7-4.6,20.3-18.3,19c-11.6-1.1-18.5,4.8-19.6,15.2c-0.8,7.5-0.1,17.4,4.3,22.5
			c9,10.5,8.6,17.1-0.8,26.9c-10.3,10.6-16.8,7.4-26.7-0.6c-5.2-4.2-16.3-5.4-22.6-2.8c-6.3,2.6-13.2,11.3-13.9,18
			c-1.4,12.7-4,19.5-18.6,19.3c-13.6-0.1-18.6-4.6-19.6-18.4c-0.5-6.7-7.2-14.2-13-19c-8.2-6.7-17.2-5.8-24.8,2.9
			C633.1,714,628.6,716.4,623,720.8z M735.2,627.3c-0.3-23.2-18.5-41.4-41.7-41.6c-23.9-0.2-42.8,18.8-42.5,42.6
			c0.2,23.6,20.1,42.6,43.6,41.8C717.5,669.3,735.5,650.4,735.2,627.3z"/>
		<linearGradient id="SVGID_3_" gradientUnits="userSpaceOnUse" x1="351.3276" y1="609.954" x2="590.5361" y2="609.954">
			<stop  offset="0" style="stop-color:#7ED957"/>
			<stop  offset="1" style="stop-color:#B6B6B6"/>
		</linearGradient>
		<path class="st4" d="M397.5,498.6c0,59.6,0,116.2,0,176c11.6,0,21.3,0,31,0c36.3,0,72.7,0.8,108.9-0.4
			c15.6-0.5,26.1,3.7,33.7,17.4c5.1,9.2,12,17.4,19.4,28c-6.7,0.7-11.3,1.7-15.9,1.7c-57,0.1-114,0.2-170.9,0
			c-36.7-0.1-51.8-15.7-51.9-53c-0.1-39.4,0.8-78.9-0.4-118.3c-0.4-14.5,4.3-23.4,16.2-30.5C377,513.8,385.7,506.9,397.5,498.6z"/>
	</g>
</g>
<g class="st1">
	<linearGradient id="SVGID_4_" gradientUnits="userSpaceOnUse" x1="112.1517" y1="778.947" x2="1044.8164" y2="778.947">
		<stop  offset="0" style="stop-color:#7ED957"/>
		<stop  offset="1" style="stop-color:#B6B6B6"/>
	</linearGradient>
	<path class="st5" d="M169.8,878.3c0,26.1,0,52.6,0,79.1c0,4.9,0.7,9.9,0.3,14.7c-1.3,14.4-12,24.1-25.9,23.8
		c-13.5-0.3-23.6-9.8-24.3-24.1c-1.6-34.8-2.4-69.6-3.9-104.3c-1-22.8-2.3-45.6-3.8-68.3c-1-15.4,12.4-28.1,28.1-27.1
		c26.3,1.7,52.5,3.1,78.8,4.2c28.8,1.2,57.6,1.8,86.5,2.7c2.8,0.1,5.6,0.3,8.4,0.8c14.1,2.3,22.6,12.7,22,26.3
		c-0.7,13.4-10.7,23.5-24.9,23.4c-20.4,0-40.8-1.2-61.2-1.5c-18.5-0.3-37-0.1-56.3-0.1c1.8,2.3,3.5,4.8,5.5,6.9
		c78.1,84.4,172.7,140.2,287.6,153.5c162.9,18.8,297.9-37.2,402.1-163.8c59.5-72.2,94.3-155.8,103.8-249.2c1.4-13.3,1-26.7,2.7-39.9
		c1.5-11.6,11-19.5,22.2-20.6c11.1-1.1,22.2,5.6,25.7,16.2c1.5,4.5,1.7,9.7,1.5,14.5c-2.4,110.9-40,209.7-106.1,297.7
		c-77.5,103.2-179.8,168.9-307.3,191.7c-138.8,24.9-266-6.2-380.6-87.6c-27.1-19.2-50.9-43-76.2-64.8
		C172.6,880.8,170.6,879,169.8,878.3z"/>
	<linearGradient id="SVGID_5_" gradientUnits="userSpaceOnUse" x1="32.3445" y1="300.8575" x2="965.0288" y2="300.8575">
		<stop  offset="0" style="stop-color:#7ED957"/>
		<stop  offset="1" style="stop-color:#B6B6B6"/>
	</linearGradient>
	<path class="st6" d="M908.5,200.6c0-19,0.1-38.6,0-58.3c-0.1-10.2-0.9-20.4-1-30.6C907.3,95.1,917.5,84,932.5,84
		c14.7-0.1,24.9,10.3,25.5,26.4c1.4,39.3,2.6,78.7,4.1,118c0.7,17.2,1.7,34.4,2.9,51.5c1.1,16.3-10.9,28.9-26.9,27.9
		c-23.8-1.4-47.6-3-71.5-3.9c-30.9-1.2-61.8-1.9-92.8-2.8c-21.2-0.7-33-10.3-32.6-26.3c0.5-16.2,12.5-24.9,33.8-24.3
		c32.7,1,65.4,1.9,98,2.9c3.4,0.1,6.7,0,10.1,0c0.6-0.9,1.2-1.9,1.8-2.8c-18.2-17.3-35.5-35.5-54.6-51.6
		c-74.5-62.8-160-101.8-257.5-109.6C452.1,79.5,343.7,112.8,251,191.4C161,267.6,106.9,365.2,87.7,481.6c-3,18.3-3.4,37.1-4.7,55.6
		c-1.2,17.7-11.2,28.5-26.2,27.9c-15-0.6-24.7-12.4-24.4-29.8C35.9,331.5,179.9,109.1,414.2,52c157.6-38.4,300.8-4.2,429.5,92.8
		C866.5,162,887.2,182.2,908.5,200.6z"/>
</g>
<g>
	<linearGradient id="SVGID_6_" gradientUnits="userSpaceOnUse" x1="555.41" y1="506.8331" x2="673.32" y2="506.8331">
		<stop  offset="0" style="stop-color:#7ED957"/>
		<stop  offset="1" style="stop-color:#B6B6B6"/>
	</linearGradient>
	<path class="st7" d="M584.9,528.7c29.7,0,59,0,88.4,0c0-4.9,0-9.4,0-14.2c-29.6,0-59,0-88.4,0C584.9,519.3,584.9,523.8,584.9,528.7
		z M673.3,485c-29.7,0-59,0-88.3,0c0,5,0,9.5,0,14.2c29.5,0,58.8,0,88.3,0C673.3,494.4,673.3,489.9,673.3,485z M584.9,469.5
		c29.7,0,58.9,0,88.3,0c0-4.9,0-9.6,0-14.2c-29.6,0-58.8,0-88.3,0C584.9,460.1,584.9,464.7,584.9,469.5z M673.3,544.2
		c-29.7,0-58.9,0-88.2,0c0,4.9,0,9.6,0,14.3c29.5,0,58.8,0,88.2,0C673.3,553.6,673.3,549.1,673.3,544.2z M569.8,514.6
		c-5.1,0-9.7,0-14.4,0c0,4.9,0,9.5,0,14.2c4.9,0,9.5,0,14.4,0C569.8,524,569.8,519.4,569.8,514.6z M555.4,558.4c5,0,9.7,0,14.2,0
		c0-5,0-9.6,0-14.2c-4.9,0-9.4,0-14.2,0C555.4,548.9,555.4,553.5,555.4,558.4z M555.4,455.2c0,5,0,9.6,0,14.3c4.9,0,9.5,0,14.2,0
		c0-4.9,0-9.5,0-14.3C564.8,455.2,560.3,455.2,555.4,455.2z M569.8,485c-5.1,0-9.7,0-14.3,0c0,4.9,0,9.4,0,14.2c4.9,0,9.5,0,14.3,0
		C569.8,494.3,569.8,489.8,569.8,485z"/>
	<linearGradient id="SVGID_7_" gradientUnits="userSpaceOnUse" x1="318.5868" y1="521.4869" x2="710.4224" y2="521.4869">
		<stop  offset="0" style="stop-color:#7ED957"/>
		<stop  offset="1" style="stop-color:#B6B6B6"/>
	</linearGradient>
	<path class="st8" d="M507.5,299.8c9.7,3,16.4,8.9,17.9,19.4c0.4,3.1,0.1,6.3,0.1,10.1c2.1,0,3.7,0,5.4,0c27.6,0,55.2-0.1,82.7,0.1
		c2.1,0,4.8,1.1,6.3,2.6c29.4,29.2,58.7,58.5,87.9,87.9c1.3,1.3,2.5,3.4,2.5,5.1c0.1,36.4,0.1,72.8,0.1,109.2c0,0.6-0.1,1.1-0.2,1.9
		c-4.8,0-9.4,0-14.5,0c0-34.4,0-68.5,0-103.1c-29.7,0-58.9,0-88.5,0c0-29.7,0-59,0-88.6c-27.2,0-54,0-81.4,0c0,1.6,0,3.2,0,4.9
		c0,58.9,0,117.8,0,176.7c0,16.4-8.7,25.1-25.1,25.1c-36.5,0-73.1,0-109.6,0c-1.7,0-3.4,0-5.4,0c0,59.2,0,118,0,177.2
		c103.1,0,206.2,0,310,0c0-29.2,0-58.5,0-88.1c5.2,0,9.7,0,14.6,0c0,34.2,0,68.4,0,102.9c-113,0-226.1,0-339.6,0
		c0-63.8,0-127.6,0-192c-5.1,0-9.8,0-14.5,0c-4.9,0-9.8,0-14.7,0c-13.2-0.2-22.6-9.5-22.6-22.8c-0.1-26.3,0-52.6,0-78.8
		c0-40.9,0-81.7,0-122.6c0-15.9,3.7-21.4,18.2-27.1C393.7,299.8,450.6,299.8,507.5,299.8z M333.4,425.5c0,33.3,0,66.7,0,100
		c0,8.7,2.1,10.8,10.6,10.8c52.1,0,104.2,0,156.3,0c8.3,0,10.6-2.2,10.6-10.4c0-67,0-134,0-201c0-8.2-2.3-10.4-10.6-10.4
		c-52.1,0-104.2,0-156.3,0c-8.3,0-10.6,2.2-10.6,10.5C333.4,358.6,333.4,392.1,333.4,425.5z M622,355.9c0,20.6,0,41.2,0,61.9
		c20.8,0,41.4,0,62,0C663.3,397,642.8,376.6,622,355.9z"/>
	<linearGradient id="SVGID_8_" gradientUnits="userSpaceOnUse" x1="577.4718" y1="621.6371" x2="762.2637" y2="621.6371">
		<stop  offset="0" style="stop-color:#7ED957"/>
		<stop  offset="1" style="stop-color:#B6B6B6"/>
	</linearGradient>
	<path class="st9" d="M762.3,554.6c-1.7,7.3-6.6,12.5-11.7,17.7c-39.8,39.6-79.4,79.4-119.2,119c-2.3,2.3-5.1,4.2-8.1,5.6
		c-11.2,5.4-22.5,10.4-33.7,15.6c-3.6,1.7-7,2.2-9.9-0.9c-3-3-2.5-6.5-0.7-10c0.1-0.1,0.1-0.2,0.2-0.4c5.8-12.5,10.2-26.1,17.9-37.3
		c7.6-11,18.6-19.6,28.2-29.2c32.5-32.6,65.1-65.1,97.7-97.7c8.5-8.5,19.9-10,29.2-4c5.7,3.7,8.3,9.3,10.2,15.5
		C762.3,550.5,762.3,552.6,762.3,554.6z M600.7,690.6c7.7-3.8,16.2-5.6,22.5-12c28.9-29.1,57.9-58,86.9-87c1.2-1.2,2.9-1.8,3.3-2
		c-4.3-4.5-7.5-7.9-11.1-11.7c-0.7,0.8-1.4,1.9-2.3,2.8c-28.1,28.1-55.9,56.4-84.3,84.1C608.2,672.2,604.8,681.3,600.7,690.6z
		 M730.3,550.9c3.4,3.4,6.8,6.8,10.1,10.2c7.5-6.7,8.8-11,4.6-15C740.8,542.2,735.9,543.8,730.3,550.9z M719,562.2
		c-1.9,1.7-3.5,3.1-4.5,4c3.6,3.7,7,7.1,10.2,10.3c1.4-1.2,3-2.6,4.5-3.9C725.7,569.1,722.5,565.7,719,562.2z"/>
	<linearGradient id="SVGID_9_" gradientUnits="userSpaceOnUse" x1="414.7673" y1="639.952" x2="562.6502" y2="639.952">
		<stop  offset="0" style="stop-color:#7ED957"/>
		<stop  offset="1" style="stop-color:#B6B6B6"/>
	</linearGradient>
	<path class="st10" d="M562.6,639.8c0.1,40.6-33,73.9-73.6,74.1c-40.7,0.2-74.1-32.9-74.3-73.4c-0.2-41.2,33-74.6,74-74.6
		C529.3,566,562.5,599.2,562.6,639.8z M547.8,639.7c-0.2-32.7-26.9-59.2-59.5-59c-32.7,0.3-59,26.9-58.8,59.6
		c0.1,32.4,26.9,58.9,59.2,58.8C521.3,699.1,548,672.2,547.8,639.7z"/>
	<linearGradient id="SVGID_10_" gradientUnits="userSpaceOnUse" x1="584.882" y1="521.6416" x2="673.32" y2="521.6416">
		<stop  offset="0" style="stop-color:#7ED957"/>
		<stop  offset="1" style="stop-color:#B6B6B6"/>
	</linearGradient>
	<path class="st11" d="M584.9,528.7c0-5,0-9.4,0-14.2c29.5,0,58.8,0,88.4,0c0,4.8,0,9.3,0,14.2C643.9,528.7,614.5,528.7,584.9,528.7
		z"/>
	<linearGradient id="SVGID_11_" gradientUnits="userSpaceOnUse" x1="585.0389" y1="492.0894" x2="673.3174" y2="492.0894">
		<stop  offset="0" style="stop-color:#7ED957"/>
		<stop  offset="1" style="stop-color:#B6B6B6"/>
	</linearGradient>
	<path class="st12" d="M673.3,485c0,4.9,0,9.4,0,14.2c-29.5,0-58.7,0-88.3,0c0-4.7,0-9.2,0-14.2C614.3,485,643.6,485,673.3,485z"/>
	<linearGradient id="SVGID_12_" gradientUnits="userSpaceOnUse" x1="584.9468" y1="462.4287" x2="673.2282" y2="462.4287">
		<stop  offset="0" style="stop-color:#7ED957"/>
		<stop  offset="1" style="stop-color:#B6B6B6"/>
	</linearGradient>
	<path class="st13" d="M584.9,469.5c0-4.9,0-9.4,0-14.2c29.4,0,58.7,0,88.3,0c0,4.6,0,9.3,0,14.2
		C643.9,469.5,614.7,469.5,584.9,469.5z"/>
	<linearGradient id="SVGID_13_" gradientUnits="userSpaceOnUse" x1="585.0709" y1="551.2913" x2="673.3118" y2="551.2913">
		<stop  offset="0" style="stop-color:#7ED957"/>
		<stop  offset="1" style="stop-color:#B6B6B6"/>
	</linearGradient>
	<path class="st14" d="M673.3,544.2c0,4.9,0,9.5,0,14.3c-29.5,0-58.7,0-88.2,0c0-4.7,0-9.4,0-14.3
		C614.4,544.2,643.7,544.2,673.3,544.2z"/>
	<linearGradient id="SVGID_14_" gradientUnits="userSpaceOnUse" x1="555.41" y1="521.696" x2="569.7867" y2="521.696">
		<stop  offset="0" style="stop-color:#7ED957"/>
		<stop  offset="1" style="stop-color:#B6B6B6"/>
	</linearGradient>
	<path class="st15" d="M569.8,514.6c0,4.8,0,9.4,0,14.2c-4.8,0-9.5,0-14.4,0c0-4.8,0-9.3,0-14.2
		C560.1,514.6,564.7,514.6,569.8,514.6z"/>
	<linearGradient id="SVGID_15_" gradientUnits="userSpaceOnUse" x1="555.412" y1="551.2577" x2="569.5969" y2="551.2577">
		<stop  offset="0" style="stop-color:#7ED957"/>
		<stop  offset="1" style="stop-color:#B6B6B6"/>
	</linearGradient>
	<path class="st16" d="M555.4,558.4c0-4.9,0-9.4,0-14.2c4.7,0,9.3,0,14.2,0c0,4.6,0,9.2,0,14.2C565.1,558.4,560.4,558.4,555.4,558.4
		z"/>
	<linearGradient id="SVGID_16_" gradientUnits="userSpaceOnUse" x1="555.4212" y1="462.393" x2="569.6521" y2="462.393">
		<stop  offset="0" style="stop-color:#7ED957"/>
		<stop  offset="1" style="stop-color:#B6B6B6"/>
	</linearGradient>
	<path class="st17" d="M555.4,455.2c4.9,0,9.4,0,14.2,0c0,4.8,0,9.4,0,14.3c-4.7,0-9.4,0-14.2,0
		C555.4,464.8,555.4,460.3,555.4,455.2z"/>
	<linearGradient id="SVGID_17_" gradientUnits="userSpaceOnUse" x1="555.4333" y1="492.0464" x2="569.7671" y2="492.0464">
		<stop  offset="0" style="stop-color:#7ED957"/>
		<stop  offset="1" style="stop-color:#B6B6B6"/>
	</linearGradient>
	<path class="st18" d="M569.8,485c0,4.8,0,9.3,0,14.2c-4.8,0-9.5,0-14.3,0c0-4.7,0-9.3,0-14.2C560,485,564.7,485,569.8,485z"/>
	<linearGradient id="SVGID_18_" gradientUnits="userSpaceOnUse" x1="341.1274" y1="347.9478" x2="503.1138" y2="347.9478">
		<stop  offset="0" style="stop-color:#7ED957"/>
		<stop  offset="1" style="stop-color:#B6B6B6"/>
	</linearGradient>
	<path class="st19" d="M503.1,373.5c-54.1,0-107.9,0-162,0c0-17,0-33.9,0-51c53.9,0,107.8,0,162,0
		C503.1,339.3,503.1,356.2,503.1,373.5z M488.3,358.7c0-7.4,0-14.4,0-21.5c-44.3,0-88.3,0-132.4,0c0,7.3,0,14.3,0,21.5
		C400.1,358.7,444.1,358.7,488.3,358.7z"/>
	<linearGradient id="SVGID_19_" gradientUnits="userSpaceOnUse" x1="399.9803" y1="506.8273" x2="444.3233" y2="506.8273">
		<stop  offset="0" style="stop-color:#7ED957"/>
		<stop  offset="1" style="stop-color:#B6B6B6"/>
	</linearGradient>
	<path class="st20" d="M400,506.9c0-2.3,0-4.6,0-6.9c0.1-8.7,5.8-14.8,14.4-15.3c5-0.3,10.1-0.2,15.1,0c8.9,0.4,14.6,6.5,14.7,15.5
		c0.1,4.8,0.1,9.5,0,14.3c-0.2,7.8-5.5,13.8-13.4,14.4c-5.6,0.4-11.3,0.4-16.9,0.1c-8.5-0.5-13.9-6.5-14-15.1
		C400,511.5,400,509.2,400,506.9z M415.1,499.6c0,5,0,9.7,0,14.4c4.9,0,9.4,0,14.2,0c0-4.9,0-9.5,0-14.4
		C424.5,499.6,420,499.6,415.1,499.6z"/>
	<linearGradient id="SVGID_20_" gradientUnits="userSpaceOnUse" x1="451.7499" y1="506.8259" x2="496.2064" y2="506.8259">
		<stop  offset="0" style="stop-color:#7ED957"/>
		<stop  offset="1" style="stop-color:#B6B6B6"/>
	</linearGradient>
	<path class="st21" d="M451.8,506.5c0-2.3-0.1-4.6,0-6.9c0.3-8.7,6-14.5,14.8-14.9c4.9-0.2,9.8-0.2,14.7,0c8.7,0.4,14.5,6.3,14.8,15
		c0.2,4.8,0.1,9.5,0,14.3c-0.3,8.7-6,14.6-14.7,15.1c-4.6,0.2-9.2,0.2-13.9,0.1c-10-0.2-15.7-6-15.8-16.1
		C451.7,510.8,451.8,508.7,451.8,506.5C451.8,506.5,451.8,506.5,451.8,506.5z M466.8,513.9c5.1,0,9.6,0,14.3,0c0-4.9,0-9.4,0-14.2
		c-4.9,0-9.5,0-14.3,0C466.8,504.6,466.8,509.1,466.8,513.9z"/>
	<linearGradient id="SVGID_21_" gradientUnits="userSpaceOnUse" x1="348.0256" y1="506.7727" x2="392.4824" y2="506.7727">
		<stop  offset="0" style="stop-color:#7ED957"/>
		<stop  offset="1" style="stop-color:#B6B6B6"/>
	</linearGradient>
	<path class="st22" d="M392.4,506.9c0,2.9,0.2,5.8,0,8.7c-0.4,6.8-5.4,12.5-12.2,13.1c-6.4,0.6-13,0.6-19.4,0
		c-7.1-0.6-12.2-6.5-12.5-13.8c-0.2-5.3-0.2-10.7,0-16c0.4-7.9,6.2-13.6,14.3-14.1c5.2-0.3,10.4-0.3,15.6,0
		c8.5,0.4,14.1,6.4,14.4,14.8C392.5,502,392.5,504.4,392.4,506.9C392.4,506.9,392.4,506.9,392.4,506.9z M377.4,514
		c0-4.9,0-9.5,0-14.1c-5,0-9.6,0-14.1,0c0,5,0,9.5,0,14.1C368.1,514,372.7,514,377.4,514z"/>
	<linearGradient id="SVGID_22_" gradientUnits="userSpaceOnUse" x1="399.9201" y1="403.3975" x2="444.3821" y2="403.3975">
		<stop  offset="0" style="stop-color:#7ED957"/>
		<stop  offset="1" style="stop-color:#B6B6B6"/>
	</linearGradient>
	<path class="st23" d="M422.2,381.2c2.7,0,5.5-0.1,8.2,0c7.4,0.4,13.4,6.2,13.7,13.6c0.3,5.6,0.3,11.3,0,16.9
		c-0.3,7.4-6.3,13.3-13.7,13.6c-5.6,0.2-11.3,0.3-16.9,0c-7.4-0.4-13.2-6.4-13.5-13.8c-0.2-5.3-0.2-10.7,0-16
		c0.2-8.1,6.3-14.1,14.4-14.3C417,381.2,419.6,381.2,422.2,381.2C422.2,381.2,422.2,381.2,422.2,381.2z M415,396.2
		c0,5.1,0,9.6,0,14.3c4.9,0,9.6,0,14.2,0c0-4.9,0-9.6,0-14.3C424.4,396.2,419.8,396.2,415,396.2z"/>
	<linearGradient id="SVGID_23_" gradientUnits="userSpaceOnUse" x1="348.0197" y1="403.3866" x2="392.5415" y2="403.3866">
		<stop  offset="0" style="stop-color:#7ED957"/>
		<stop  offset="1" style="stop-color:#B6B6B6"/>
	</linearGradient>
	<path class="st24" d="M370.2,381.3c2.9,0,5.8-0.1,8.7,0c7.2,0.4,13.1,6.1,13.5,13.4c0.3,5.8,0.3,11.6,0,17.3
		c-0.4,7.4-6.3,13.2-13.8,13.5c-5.3,0.2-10.7,0.2-16,0c-7.8-0.2-13.9-6.2-14.3-14.1c-0.3-5.3-0.3-10.7,0-16
		c0.4-8.1,6.5-13.9,14.6-14.1C365.3,381.2,367.7,381.2,370.2,381.3C370.2,381.2,370.2,381.2,370.2,381.3z M377.5,410.5
		c0-5,0-9.6,0-14.3c-4.9,0-9.5,0-14.2,0c0,4.9,0,9.6,0,14.3C368.1,410.5,372.6,410.5,377.5,410.5z"/>
	<linearGradient id="SVGID_24_" gradientUnits="userSpaceOnUse" x1="451.6873" y1="403.3364" x2="496.1838" y2="403.3364">
		<stop  offset="0" style="stop-color:#7ED957"/>
		<stop  offset="1" style="stop-color:#B6B6B6"/>
	</linearGradient>
	<path class="st25" d="M473.7,425.5c-2.6,0-5.2,0.1-7.8,0c-7.7-0.3-13.7-6-14.1-13.7c-0.3-5.6-0.3-11.3,0-16.9
		c0.4-7.7,6.4-13.4,14.1-13.6c4.9-0.1,9.8-0.1,14.7,0c9,0.1,15.1,6.1,15.4,15.2c0.1,4.5,0.1,8.9,0,13.4c-0.2,9.6-6.3,15.5-15.9,15.6
		C478.1,425.5,475.9,425.5,473.7,425.5C473.7,425.5,473.7,425.5,473.7,425.5z M466.9,396.2c0,5,0,9.6,0,14.2c5,0,9.6,0,14.2,0
		c0-4.9,0-9.4,0-14.2C476.3,396.2,471.8,396.2,466.9,396.2z"/>
	<linearGradient id="SVGID_25_" gradientUnits="userSpaceOnUse" x1="399.9785" y1="455.1949" x2="444.3784" y2="455.1949">
		<stop  offset="0" style="stop-color:#7ED957"/>
		<stop  offset="1" style="stop-color:#B6B6B6"/>
	</linearGradient>
	<path class="st26" d="M400,455.1c0-2.7-0.1-5.5,0-8.2c0.4-7.3,5.9-13.3,13.1-13.7c5.9-0.3,11.8-0.3,17.7,0
		c7.3,0.4,13,6.3,13.3,13.5c0.2,5.6,0.3,11.3,0,16.9c-0.4,7.5-6.4,13.3-14.2,13.7c-5.3,0.3-10.7,0.3-16,0c-8.1-0.5-13.8-6.7-14-14.8
		C399.9,460,400,457.5,400,455.1C400,455.1,400,455.1,400,455.1z M429.3,448.1c-5,0-9.6,0-14.2,0c0,5,0,9.6,0,14.2
		c4.9,0,9.4,0,14.2,0C429.3,457.5,429.3,453,429.3,448.1z"/>
	<linearGradient id="SVGID_26_" gradientUnits="userSpaceOnUse" x1="348.0588" y1="455.1875" x2="392.484" y2="455.1875">
		<stop  offset="0" style="stop-color:#7ED957"/>
		<stop  offset="1" style="stop-color:#B6B6B6"/>
	</linearGradient>
	<path class="st27" d="M392.5,455c0,2.5,0.1,4.9,0,7.4c-0.3,8.5-5.9,14.5-14.3,14.9c-5.2,0.2-10.4,0.2-15.6,0
		c-8.3-0.4-14.1-6.5-14.4-14.9c-0.1-4.9-0.2-9.8,0-14.7c0.3-8.4,6.2-14.3,14.6-14.6c4.9-0.2,9.8-0.2,14.7,0
		c9,0.2,14.7,6.1,14.9,15.1C392.5,450.4,392.5,452.7,392.5,455z M363.3,447.9c0,5.1,0,9.8,0,14.3c4.9,0,9.5,0,14,0c0-5,0-9.6,0-14.3
		C372.5,447.9,368,447.9,363.3,447.9z"/>
	<linearGradient id="SVGID_27_" gradientUnits="userSpaceOnUse" x1="451.7506" y1="455.1633" x2="496.2415" y2="455.1633">
		<stop  offset="0" style="stop-color:#7ED957"/>
		<stop  offset="1" style="stop-color:#B6B6B6"/>
	</linearGradient>
	<path class="st28" d="M451.9,454.9c0-3-0.2-6.1,0-9.1c0.6-6.7,6-12.2,12.7-12.6c6-0.4,12.1-0.4,18.2,0c7.4,0.4,12.9,6.4,13.2,14.1
		c0.2,5.2,0.2,10.4,0,15.6c-0.4,8.3-6.5,14.1-14.9,14.5c-4.5,0.2-8.9,0.1-13.4,0c-9.9-0.1-15.8-6-16-15.9c0-2.2,0-4.3,0-6.5
		C451.8,454.9,451.9,454.9,451.9,454.9z M466.7,462.2c5.1,0,9.7,0,14.3,0c0-4.9,0-9.5,0-14c-5,0-9.6,0-14.3,0
		C466.7,453,466.7,457.4,466.7,462.2z"/>
	<linearGradient id="SVGID_28_" gradientUnits="userSpaceOnUse" x1="458.9175" y1="639.9386" x2="518.2378" y2="639.9386">
		<stop  offset="0" style="stop-color:#7ED957"/>
		<stop  offset="1" style="stop-color:#B6B6B6"/>
	</linearGradient>
	<path class="st29" d="M481.4,603c0-2.1,0-4.5,0-7.2c4.9,0,9.5,0,14.5,0c0,2.5,0,5,0,7.6c11.2,3.4,20.8,8,22.3,21.7
		c-4.7,0-8.8,0.1-13-0.1c-0.7,0-1.6-0.6-2.1-1.1c-6.3-6.7-18-8.2-25.7-3.3c-4.6,3-4.7,6.7,0.3,9c3.5,1.7,7.7,2.5,11.6,2.8
		c6.7,0.5,13.1,1.8,18.9,5.5c13.4,8.7,13.4,24.9,0,33.4c-3.5,2.2-7.5,3.5-11.8,5.5c-0.1,1.9-0.2,4.4-0.4,7.3c-4.8,0-9.4,0-14.5,0
		c0-2.6,0-5,0-7.6c-11.2-3.2-20.7-8-22.5-21.7c4.7,0,9-0.1,13.2,0.1c0.7,0,1.6,0.6,2.1,1.2c6.3,6.6,18.1,8.1,25.7,3.2
		c4.4-2.9,4.6-6.6-0.2-8.9c-3.7-1.7-7.9-2.6-12-2.9c-6.7-0.6-13.1-1.9-18.8-5.6c-13.3-8.8-13.3-24.9,0.3-33.3
		C472.8,606.3,476.8,605,481.4,603z"/>
</g>
</svg>
