<?xml version="1.0" encoding="utf-8"?>
<!-- Generator: Adobe Illustrator 24.3.0, SVG Export Plug-In . SVG Version: 6.00 Build 0)  -->
<svg version="1.1" id="Layer_1" xmlns="http://www.w3.org/2000/svg" xmlns:xlink="http://www.w3.org/1999/xlink" x="0px" y="0px"
	 viewBox="0 0 1080 1080" style="enable-background:new 0 0 1080 1080;" xml:space="preserve">
<style type="text/css">
	.st0{display:none;fill:#FFFFFF;}
	.st1{fill:url(#SVGID_1_);}
	.st2{fill:url(#SVGID_2_);}
	.st3{fill:url(#SVGID_3_);}
	.st4{fill:url(#SVGID_4_);}
	.st5{fill:url(#SVGID_5_);}
</style>
<g>
	<circle class="st0" cx="540" cy="540" r="521"/>
	<g>
		<linearGradient id="SVGID_1_" gradientUnits="userSpaceOnUse" x1="290.6471" y1="408.9894" x2="786.5079" y2="408.9894">
			<stop  offset="0" style="stop-color:#7ED957"/>
			<stop  offset="1" style="stop-color:#B6B6B6"/>
		</linearGradient>
		<path class="st1" d="M678.8,408.6c0-30.3-0.2-56.6,0.1-82.8c0.2-19.2,9.1-30.1,23.6-30c14.3,0.1,23,11.1,23.1,30.5
			c0.2,31.9,0.9,63.9-0.3,95.7c-0.6,15.4,3.1,26.1,17,33.9c10.8,6.1,20.5,14.4,30.4,22c14.4,11.1,18,24.3,8.9,35.1
			c-11.2,13.2-23.6,11-36.5,1.7c-61.7-45-123.9-89.2-184.8-135.3c-16.3-12.3-26.4-12.8-42.8-0.3c-59.8,45.3-121.1,88.8-181.8,133
			c-2.5,1.8-5,3.8-7.6,5.4c-12.6,7.5-24.4,6.7-32.9-5.7c-8.1-11.8-4.8-23.1,6.1-31.3c23-17.3,46.4-34,69.7-50.9
			c51.6-37.6,103.4-74.8,154.6-112.9c9.7-7.2,16.1-7.6,25.9-0.3c36.5,27.5,73.7,54,110.6,80.9C666.5,400.3,671,403.3,678.8,408.6z"
			/>
		<linearGradient id="SVGID_2_" gradientUnits="userSpaceOnUse" x1="576.495" y1="628.1078" x2="809.962" y2="628.1078">
			<stop  offset="0" style="stop-color:#7ED957"/>
			<stop  offset="1" style="stop-color:#B6B6B6"/>
		</linearGradient>
		<path class="st2" d="M623,720.8c-6.6-6.2-13.9-11.3-18.4-18.2c-2-3,0.2-10.8,3-14.6c16.4-22.7,10.3-38.2-17.8-41.7
			c-13.8-1.7-13-10.4-13.3-20.1c-0.3-10.5,2.8-17.4,14.7-16.4c12.3,1.1,19-3.7,23.9-15.6c4.5-11,1.8-17.8-5.9-24.6
			c-9.2-8.1-8.1-15.3,0.5-23.5c8.1-7.7,15.2-13.8,24.8-2.7c7.3,8.4,14.5,11.2,26.1,6.2c11.4-4.9,15.1-11.7,14.2-22.9
			c-1-13.1,6.8-15.2,17.8-15.3c11.8-0.1,20.2,2.1,18.6,16.2c-1.3,12,4.8,17.4,15.3,22.2c10.9,5,17.8,1.8,24.5-5.9
			c9-10.2,16.3-7.1,24.9,1.5c9.2,9.1,10.2,16.6,0.3,24.9c-8.4,7.1-9.3,14.6-4.7,24.8c4.4,9.7,9.4,15.9,20.8,14.6
			c13-1.4,17.3,4.5,17.5,17.5c0.2,13.7-4.6,20.3-18.3,19c-11.6-1.1-18.5,4.8-19.6,15.2c-0.8,7.5-0.1,17.4,4.3,22.5
			c9,10.5,8.6,17.1-0.8,26.9c-10.3,10.6-16.8,7.4-26.7-0.6c-5.2-4.2-16.3-5.4-22.6-2.8c-6.3,2.6-13.2,11.3-13.9,18
			c-1.4,12.7-4,19.5-18.6,19.3c-13.6-0.1-18.6-4.6-19.6-18.4c-0.5-6.7-7.2-14.2-13-19c-8.2-6.7-17.2-5.8-24.8,2.9
			C633.1,714,628.6,716.4,623,720.8z M735.2,627.3c-0.3-23.2-18.5-41.4-41.7-41.6c-23.9-0.2-42.8,18.8-42.5,42.6
			c0.2,23.6,20.1,42.6,43.6,41.8C717.5,669.3,735.5,650.4,735.2,627.3z"/>
		<linearGradient id="SVGID_3_" gradientUnits="userSpaceOnUse" x1="351.3276" y1="609.954" x2="590.5361" y2="609.954">
			<stop  offset="0" style="stop-color:#7ED957"/>
			<stop  offset="1" style="stop-color:#B6B6B6"/>
		</linearGradient>
		<path class="st3" d="M397.5,498.6c0,59.6,0,116.2,0,176c11.6,0,21.3,0,31,0c36.3,0,72.7,0.8,108.9-0.4
			c15.6-0.5,26.1,3.7,33.7,17.4c5.1,9.2,12,17.4,19.4,28c-6.7,0.7-11.3,1.7-15.9,1.7c-57,0.1-114,0.2-170.9,0
			c-36.7-0.1-51.8-15.7-51.9-53c-0.1-39.4,0.8-78.9-0.4-118.3c-0.4-14.5,4.3-23.4,16.2-30.5C377,513.8,385.7,506.9,397.5,498.6z"/>
	</g>
</g>
<g>
	<linearGradient id="SVGID_4_" gradientUnits="userSpaceOnUse" x1="112.1517" y1="778.947" x2="1044.8164" y2="778.947">
		<stop  offset="0" style="stop-color:#7ED957"/>
		<stop  offset="1" style="stop-color:#B6B6B6"/>
	</linearGradient>
	<path class="st4" d="M169.8,878.3c0,26.1,0,52.6,0,79.1c0,4.9,0.7,9.9,0.3,14.7c-1.3,14.4-12,24.1-25.9,23.8
		c-13.5-0.3-23.6-9.8-24.3-24.1c-1.6-34.8-2.4-69.6-3.9-104.3c-1-22.8-2.3-45.6-3.8-68.3c-1-15.4,12.4-28.1,28.1-27.1
		c26.3,1.7,52.5,3.1,78.8,4.2c28.8,1.2,57.6,1.8,86.5,2.7c2.8,0.1,5.6,0.3,8.4,0.8c14.1,2.3,22.6,12.7,22,26.3
		c-0.7,13.4-10.7,23.5-24.9,23.4c-20.4,0-40.8-1.2-61.2-1.5c-18.5-0.3-37-0.1-56.3-0.1c1.8,2.3,3.5,4.8,5.5,6.9
		c78.1,84.4,172.7,140.2,287.6,153.5c162.9,18.8,297.9-37.2,402.1-163.8c59.5-72.2,94.3-155.8,103.8-249.2c1.4-13.3,1-26.7,2.7-39.9
		c1.5-11.6,11-19.5,22.2-20.6c11.1-1.1,22.2,5.6,25.7,16.2c1.5,4.5,1.7,9.7,1.5,14.5c-2.4,110.9-40,209.7-106.1,297.7
		c-77.5,103.2-179.8,168.9-307.3,191.7c-138.8,24.9-266-6.2-380.6-87.6c-27.1-19.2-50.9-43-76.2-64.8
		C172.6,880.8,170.6,879,169.8,878.3z"/>
	<linearGradient id="SVGID_5_" gradientUnits="userSpaceOnUse" x1="32.3445" y1="300.8575" x2="965.0288" y2="300.8575">
		<stop  offset="0" style="stop-color:#7ED957"/>
		<stop  offset="1" style="stop-color:#B6B6B6"/>
	</linearGradient>
	<path class="st5" d="M908.5,200.6c0-19,0.1-38.6,0-58.3c-0.1-10.2-0.9-20.4-1-30.6C907.3,95.1,917.5,84,932.5,84
		c14.7-0.1,24.9,10.3,25.5,26.4c1.4,39.3,2.6,78.7,4.1,118c0.7,17.2,1.7,34.4,2.9,51.5c1.1,16.3-10.9,28.9-26.9,27.9
		c-23.8-1.4-47.6-3-71.5-3.9c-30.9-1.2-61.8-1.9-92.8-2.8c-21.2-0.7-33-10.3-32.6-26.3c0.5-16.2,12.5-24.9,33.8-24.3
		c32.7,1,65.4,1.9,98,2.9c3.4,0.1,6.7,0,10.1,0c0.6-0.9,1.2-1.9,1.8-2.8c-18.2-17.3-35.5-35.5-54.6-51.6
		c-74.5-62.8-160-101.8-257.5-109.6C452.1,79.5,343.7,112.8,251,191.4C161,267.6,106.9,365.2,87.7,481.6c-3,18.3-3.4,37.1-4.7,55.6
		c-1.2,17.7-11.2,28.5-26.2,27.9c-15-0.6-24.7-12.4-24.4-29.8C35.9,331.5,179.9,109.1,414.2,52c157.6-38.4,300.8-4.2,429.5,92.8
		C866.5,162,887.2,182.2,908.5,200.6z"/>
</g>
</svg>
