<svg xmlns="http://www.w3.org/2000/svg" width="1732.04" height="1731.74" viewBox="0 0 1732.04 1731.74">
  <defs>
    <style>
      .a {
        fill: #7ed957;
      }
    </style>
  </defs>
  <g>
    <path class="a" d="M132.52,876.49c9.65-15.56,24.12-20,41.66-19.59,24.78.65,49.61-.32,74.39.39,10.58.3,14.38-3.41,16.72-13.67,6.38-27.94,14.3-55.52,22.22-85.56-23.56-13.67-48.22-28-72.9-42.3-31.89-18.5-34.51-28.53-15.8-60.91q51.12-88.47,102.29-176.93c15.19-26.2,27.53-29.44,53.79-14.4,25.41,14.54,50.74,29.2,74.15,42.67l73.52-74.52c-12.28-21.33-27.09-47-41.82-72.68-15.61-27.23-12.43-39.36,14.6-55Q566,251.49,656.7,199.19c25.91-14.92,38.45-11.38,53.75,14.89,14.72,25.28,29.3,50.65,44.17,76.36,31.37-7.95,62.35-15.45,93-24.12,3.12-.88,5.92-8.77,6-13.47.58-26.47.06-53,.35-79.45.3-27.39,10.68-37.55,38.17-37.59q106.55-.15,213.07,0c27.28,0,37.53,10.32,37.8,38,.27,26.49-.42,53,.52,79.45.17,4.9,5.22,12.64,9.52,13.9,29.06,8.48,58.52,15.58,89.24,23.48,14.67-25.37,29.47-51.16,44.45-76.85,15.14-26,27.82-29.4,53.9-14.37q90.75,52.27,181.35,104.8c26.42,15.31,29.75,27.53,14.85,53.64-14.75,25.83-29.61,51.61-43.13,75.15l73.57,73.6c24.07-13.86,50.29-29.08,76.64-44.07,24-13.68,37.39-10.06,51.44,14.18q53.34,92.07,106.36,184.32c13.9,24.2,10.29,37.42-13.76,51.53-26.15,15.33-52.44,30.4-78.26,45.35,8,31.23,15.27,61.22,23.81,90.84,1.09,3.77,8.81,7.83,13.58,8,26.47.77,53,.17,79.46.44,27.59.27,37.86,10.55,37.9,37.86q.16,106.51,0,213c0,27.44-10.23,37.8-37.65,38.1-25.93.29-51.87.41-77.79-.1-9.92-.2-14.78,2.16-17.21,13-6.33,28.45-14.47,56.5-22.29,86.23,25.34,14.65,51.11,29.47,76.8,44.42,26.19,15.26,29.67,27.76,14.72,53.75q-52.65,91.5-105.54,182.85c-14.43,24.91-27.39,28.17-52.79,13.67-25.87-14.76-51.66-29.64-76.14-43.69l-73,73.7c13.89,24.14,29.1,50.34,44.07,76.66,13.75,24.17,10.23,37.55-13.88,51.53q-92.06,53.37-184.33,106.39c-24.4,14-37.54,10.55-51.61-13.43-15.34-26.14-30.38-52.46-45.38-78.41-31.1,7.94-61.09,15.17-90.71,23.67-3.8,1.09-8,8.7-8.1,13.4q-1.2,38-.23,76.07c.41,17.52-4.11,32-19.7,41.6H873.36c-16.17-10.09-20.15-25.28-19.61-43.31.74-24.77.61-49.59-.2-74.35-.16-4.72-4.33-12.32-8.13-13.41-29.62-8.5-59.6-15.74-90.7-23.68-15,25.91-30.07,52.21-45.42,78.34-14.11,24-27.26,27.54-51.57,13.57q-92.24-53-184.26-106.36c-24.29-14.07-27.88-27.36-14.16-51.43,15-26.33,30.26-52.52,44.32-76.9l-73.3-73.57c-25.5,14.7-52.59,30.64-80,46-18.78,10.51-34.19,8.17-44-8.57Q248.08,1434.86,191.42,1335c-8.92-15.69-4.53-29.29,10.31-39.65,6.9-4.82,14.44-8.73,21.73-13,21.73-12.63,43.48-25.21,64-37.1-8-30.7-15.88-58.87-22.54-87.32-2.1-9-5.72-12-14.68-11.9-25.35.44-50.73-.33-76.07.31-17.53.45-32-4-41.64-19.58Zm1345.06,781.73c-14.79-25.69-28.82-49.93-42.73-74.24-13.59-23.74-11.4-32.84,8.11-51.5,28.47-27.22,56.64-54.82,83.72-83.42,22.32-23.57,29.34-25.55,58-9,23.23,13.39,46.48,26.74,70.56,40.59l86.44-149.9c-23.68-13.67-45.58-26.29-67.45-39-32.71-18.91-33.93-24.75-22.51-61.28,10.38-33.23,19.37-67,26.91-101,8.14-36.62,12.31-41.14,50.57-41.15h76.84V914.85c-28.83,0-56.87.1-84.91,0-27.7-.13-33.81-6-40.35-32.55-9.55-38.73-19.58-77.39-30.94-115.62-8.64-29.06-6.58-37.23,19.63-52.42,23.76-13.78,47.52-27.53,72.23-41.84-29.21-50.54-57.54-99.56-86.54-149.76-26.87,15.5-52,30.22-77.42,44.58-18.09,10.23-29.64,8.94-42.76-4.14-32.68-32.58-65.24-65.29-98-97.78-11.49-11.39-14-24-6.39-38.28,4.23-7.94,8.91-15.65,13.38-23.47,11-19.31,22-38.62,33.46-58.58l-149.63-86.35c-15.19,26.12-29.71,51.41-44.55,76.51-12.11,20.49-22.28,23.49-45.09,16.95-39.43-11.31-79-22.31-118.77-32.22-28.6-7.12-34-12.57-34.07-42.56-.08-27.46,0-54.92,0-82.86H911.71c0,30.21.24,59.4-.07,88.59-.25,22.93-7.5,30.39-29.69,35.9-38.73,9.61-77.53,19.15-115.74,30.59C733.44,359.31,727,358,710,328.8c-13.46-23.15-27-46.27-40.95-70.18L519.47,345.08c15.12,26.28,29.18,50.58,43.1,75,13,22.78,10.76,32.22-7.87,50.18Q510.35,513,467.52,557.34c-18.69,19.41-27.75,21.61-51.57,8-24.3-13.91-48.53-27.92-74.14-42.66L255.3,672.5c25.5,14.73,49.84,28.7,74.09,42.82C352.84,729,355.69,738.6,348.23,764c-11.07,37.72-21.54,75.67-30.82,113.87-7.76,32-12.59,36.94-45.41,37q-40.33.06-80.66,0v173.59c30.95,0,60.74-.31,90.51.11,20,.29,28.51,8,33.36,26.65q17,65.25,34.76,130.29c4.94,18.16,1.61,28.93-14.45,38.85-14.85,9.16-30.23,17.46-45.32,26.22-11.43,6.63-22.78,13.37-34.82,20.46l86.49,149.58c26.54-15.26,50.87-29.34,75.28-43.26,22.65-12.91,31.81-10.61,50.1,8.36,28.12,29.18,56.67,58,85.94,86,20.48,19.59,22.8,28.27,8.81,52.71-13.9,24.27-27.91,48.47-42.52,73.82l147.85,85.32c2.18-1.36,2.86-1.54,3.11-2,14.85-25.21,29.48-50.56,44.56-75.63,10.13-16.84,20.72-21,38.15-16.3q66.78,17.86,133.59,35.55c15.42,4.08,24.42,13.35,24.8,29.78.2,8.45.17,16.91.18,25.36,0,22.88,0,45.77,0,68.85h171c.93-1.65,1.94-2.61,2-3.58.28-28.17.32-56.33.7-84.5.33-24,7.22-31,30.54-36.92,40.32-10.16,80.54-20.84,120.47-32.43,25.34-7.36,34.87-4.54,48.58,19,14.11,24.24,28.08,48.57,42.75,74Z" transform="translate(-132.52 -135.74)"/>
    <path class="a" d="M392.7,1000.29c1.83-334.66,273.85-605.62,606.73-604.38,335,1.25,607.79,275.46,604.9,607.9-2.93,335.36-275.29,605.91-607.57,603.53C661.67,1604.94,390.88,1332.81,392.7,1000.29Zm603.39,549.4c300.73,2.66,548.35-242.92,550.6-546.05,2.22-300.33-241.64-546.5-544.89-550.06-300.39-3.52-548.31,241.59-551.43,545.19C447.28,1299.29,692.66,1547,996.09,1549.69Z" transform="translate(-132.52 -135.74)"/>
    <path class="a" d="M855.38,741.58c0-23.56-1.76-45.52.37-67.09,4.25-43,35.87-73.59,79.21-75.68,40.48-1.95,81.16-2.11,121.66-.59,52.6,2,85,37.14,86.4,90.94.43,16.77.06,33.57.06,52.42h19.55q114.12,0,228.23,0c30.94,0,40.59,9.65,40.64,40.25.06,33.24,0,66.48,0,99.72.08,36.53-15.37,64.29-47.86,81.07-9.08,4.69-9.88,10.39-9.86,18.69q.24,119.17.09,238.33c0,65.37-34.57,99.65-100.45,99.66q-275.57,0-551.13,0c-64.4,0-99.14-34.81-99.18-99.23,0-78.88-.18-157.76.2-236.63,0-10.59-2.23-16.82-12.51-22.32-29.77-15.92-44.69-42.06-45.17-75.76-.49-34.92-.2-69.86-.12-104.79.07-28.54,10.17-38.9,38.53-39q115-.21,229.92,0ZM680.78,973.74v17.39q0,114.15,0,228.29c0,32.88,9.36,42.23,42.29,42.24q275.68,0,551.36,0c32.09,0,41.78-9.52,41.8-41q.09-115,0-230c0-5.43-.52-10.85-.82-16.7H1084.86c0,10.14.77,19.15-.17,28-1.86,17.43-10.82,27.46-28.09,27.88-38.86,1-77.77.74-116.64,0-16.32-.3-25.61-10.55-27.45-26.69-1.08-9.4-1.1-18.92-1.64-29.37Zm693-173H623.14c0,25.58,0,49.78,0,74,.08,30.84,9.27,40,40.5,40.08q115,.13,230,0c5.47,0,11-.54,18.14-.92,0-8.33-.32-15.53,0-22.69C913,868.6,923,857.73,945.2,857.3q53.24-1,106.52,0c22.31.43,32.32,11.24,33.5,33.78.39,7.55.06,15.14.06,23.44,88.59,0,174.2.3,259.81-.24,17.6-.11,28-11.25,28.49-29.3C1374.38,857.41,1373.79,829.8,1373.79,800.73ZM1084.6,741c0-20.5.89-39.54-.27-58.45-1-16.11-10.93-26.19-27.34-26.42q-59-.84-118,.17c-14.73.26-24.77,9.31-25.71,24-1.28,20-.32,40-.32,60.65ZM970.81,915.79v56h55.39v-56Z" transform="translate(-132.52 -135.74)"/>
  </g>
</svg>
